<?xml version="1.0" encoding="UTF-8"?>
<svg width="166px" height="166px" viewBox="0 0 166 166" version="1.1" xmlns="http://www.w3.org/2000/svg" xmlns:xlink="http://www.w3.org/1999/xlink" xmlns:sketch="http://www.bohemiancoding.com/sketch/ns">
    <!-- Generator: Sketch 3.4.2 (15855) - http://www.bohemiancoding.com/sketch -->
    <title>Artboard 5 Copy</title>
    <desc>Created with Sketch.</desc>
    <defs></defs>
    <g id="Page-1" stroke="none" stroke-width="1" fill="none" fill-rule="evenodd" sketch:type="MSPage">
        <g id="Artboard-5-Copy" sketch:type="MSArtboardGroup" fill="#FFFFFF">
            <g id="humidity_icon" sketch:type="MSLayerGroup" transform="translate(3.000000, 3.000000)">
                <path d="M80,-5.71428572e-05 C77.896,-5.71428572e-05 76.1904762,1.70552381 76.1904762,3.80946667 L76.1904762,34.2856571 C76.1904762,36.3896 77.896,38.095181 80,38.095181 C82.104,38.095181 83.8095238,36.3896 83.8095238,34.2856571 L83.8095238,3.80946667 C83.8095238,1.70552381 82.104,-5.71428572e-05 80,-5.71428572e-05 L80,-5.71428572e-05 Z M26.1309524,22.3213714 C25.156019,22.3213714 24.1962476,22.7084571 23.452381,23.4523238 C21.9646286,24.9400762 21.9646667,27.3217524 23.452381,28.8094667 L45,50.3570857 C46.4876952,51.844819 48.8693905,51.8448381 50.3571429,50.3570857 C51.8448952,48.8693333 51.8448571,46.4876571 50.3571429,44.9999429 L28.8095238,23.4523238 C28.0656571,22.7084571 27.1058857,22.3213714 26.1309524,22.3213714 L26.1309524,22.3213714 Z M133.869048,22.3213714 C132.894114,22.3213714 131.934343,22.7084571 131.190476,23.4523238 L109.642857,44.9999429 C108.155143,46.4876571 108.155105,48.8693333 109.642857,50.3570857 C111.13061,51.8448381 113.512305,51.844819 115,50.3570857 L136.547619,28.8094667 C138.035333,27.3217524 138.035371,24.9400762 136.547619,23.4523238 C135.803752,22.7084571 134.843981,22.3213714 133.869048,22.3213714 L133.869048,22.3213714 Z M80,49.5237524 C63.2136381,49.5237524 49.5238095,63.213581 49.5238095,79.9998476 C49.5238095,96.7863238 63.2136381,110.476229 80,110.476229 C96.7863429,110.476229 110.47619,96.7863238 110.47619,79.9998476 C110.47619,63.213581 96.7863429,49.5237524 80,49.5237524 L80,49.5237524 Z M80,57.1428 C92.6686667,57.1428 102.857143,67.3312952 102.857143,79.9998476 C102.857143,92.6686095 92.6686667,102.857181 80,102.857181 C67.3313143,102.857181 57.1428571,92.6686095 57.1428571,79.9998476 C57.1428571,67.3312952 67.3313143,57.1428 80,57.1428 L80,57.1428 Z M3.80952381,76.1903238 C1.7055621,76.1903238 1.90476161e-07,77.8960381 1.90476161e-07,79.9998476 C1.90476161e-07,82.1040381 1.7055621,83.8093714 3.80952381,83.8093714 L34.2857143,83.8093714 C36.3896571,83.8095619 38.0952381,82.1038476 38.0952381,79.9998476 C38.0952381,77.8958476 36.3896571,76.1903238 34.2857143,76.1903238 L3.80952381,76.1903238 L3.80952381,76.1903238 Z M125.714286,76.1903238 C123.610343,76.1903238 121.904762,77.8958476 121.904762,79.9998476 C121.904762,82.1038476 123.610343,83.8095619 125.714286,83.8093714 L156.190476,83.8093714 C158.294438,83.8093714 160,82.1040381 160,79.9998476 C160,77.8960381 158.294438,76.1903238 156.190476,76.1903238 L125.714286,76.1903238 L125.714286,76.1903238 Z M47.6785714,108.511848 C46.7036381,108.511848 45.7438667,108.899086 45,109.642895 L23.452381,131.190514 C21.9646476,132.678133 21.9646286,135.059848 23.452381,136.547657 C24.9401524,138.035467 27.3217905,138.035467 28.8095238,136.547657 L50.3571429,115.000038 C51.8448762,113.512419 51.8448762,111.130705 50.3571429,109.642895 C49.6132762,108.899086 48.6535048,108.511848 47.6785714,108.511848 L47.6785714,108.511848 Z M112.321429,108.511848 C111.346495,108.511848 110.386724,108.899086 109.642857,109.642895 C108.155124,111.130705 108.155124,113.512419 109.642857,115.000038 L131.190476,136.547657 C132.67821,138.035467 135.059848,138.035467 136.547619,136.547657 C138.035371,135.059848 138.035352,132.678133 136.547619,131.190514 L115,109.642895 C114.256133,108.899086 113.296362,108.511848 112.321429,108.511848 L112.321429,108.511848 Z M80,121.9048 C77.896,121.9048 76.1904762,123.610324 76.1904762,125.714324 L76.1904762,156.190514 C76.1904762,158.294514 77.896,160.000038 80,160.000038 C82.104,160.000038 83.8095238,158.294514 83.8095238,156.190514 L83.8095238,125.714324 C83.8095238,123.610324 82.104,121.9048 80,121.9048 L80,121.9048 Z" id="Shape" sketch:type="MSShapeGroup"></path>
            </g>
        </g>
    </g>
</svg>