<?xml version="1.0" encoding="UTF-8"?>
<svg width="166px" height="166px" viewBox="0 0 166 166" version="1.1" xmlns="http://www.w3.org/2000/svg" xmlns:xlink="http://www.w3.org/1999/xlink" xmlns:sketch="http://www.bohemiancoding.com/sketch/ns">
    <!-- Generator: Sketch 3.4.2 (15855) - http://www.bohemiancoding.com/sketch -->
    <title>Artboard 1 Copy</title>
    <desc>Created with Sketch.</desc>
    <defs></defs>
    <g id="Page-1" stroke="none" stroke-width="1" fill="none" fill-rule="evenodd" sketch:type="MSPage">
        <g id="Artboard-1-Copy" sketch:type="MSArtboardGroup" fill="#FFFFFF">
            <g id="aqi_icon" sketch:type="MSLayerGroup" transform="translate(15.000000, 4.000000)">
                <path d="M0.83816,89.57 L0.8492,159 L8.2092,159 L8.20184,113.091034 L30.28184,113.091034 L30.2892,158.890345 L37.6492,158.890345 L37.63816,89.57 L0.83816,89.57 L0.83816,89.57 Z M30.28,96.8803448 L30.28184,109.435862 L8.20184,109.435862 L8.2,96.8803448 L30.28,96.8803448 L30.28,96.8803448 Z" id="Shape" sketch:type="MSShapeGroup"></path>
                <path d="M48.7168,71.2813448 L48.72784,159 L56.08784,159 L56.08048,94.8005517 L78.16048,94.8005517 L78.16968,158.888517 L85.52968,158.888517 L85.5168,71.2813448 L48.7168,71.2813448 L48.7168,71.2813448 Z M78.1568,78.5916897 L78.15864,91.1453793 L56.07864,91.1453793 L56.0768,78.5916897 L78.1568,78.5916897 L78.1568,78.5916897 Z" id="Shape" sketch:type="MSShapeGroup"></path>
                <path d="M96.51632,107.86231 L96.52552,159 L103.88552,159 L103.88,131.381517 L125.96,131.381517 L125.96552,158.890345 L133.32552,158.890345 L133.31632,107.86231 L96.51632,107.86231 L96.51632,107.86231 Z M125.95632,115.172655 L125.96,127.726345 L103.88,127.726345 L103.87816,115.172655 L125.95632,115.172655 L125.95632,115.172655 Z" id="Shape" sketch:type="MSShapeGroup"></path>
                <path d="M106.80008,33.7774483 C120.19712,39.6001379 129.17264,32.9002069 129.19104,22.2325862 C142.02136,15.2987241 134.6632,-2.51475862 118.57976,3.66796552 L118.57976,3.66613793 C109.8416,-2.21868966 102.95448,0.822413793 102.95448,0.822413793 C99.69216,1.65762069 96.62856,4.12486207 94.74256,9.6587931 C80.18264,7.05631034 74.18976,16.1394138 74.9552,22.2453793 C72.03696,22.3404138 64.78736,23.1463793 60.43392,28.9544483 C50.05632,42.7947586 60.50568,58.2195862 60.50568,58.2195862 L60.50384,58.2122759 C62.6548,62.2238276 65.63928,66.6264828 65.63928,66.6264828 L72.6368,66.6264828 C73.13544,63.6292414 72.6,56.1251724 75.4796,54.038069 C85.93632,49.5732759 83.59768,41.1535862 83.59768,41.1535862 C94.10224,48.5297241 106.2076,42.5937241 106.80008,33.7774483 L106.80008,33.7774483 Z" id="Shape" sketch:type="MSShapeGroup"></path>
            </g>
        </g>
    </g>
</svg>