<?xml version="1.0" encoding="UTF-8"?>
<svg width="166px" height="166px" viewBox="0 0 166 166" version="1.1" xmlns="http://www.w3.org/2000/svg" xmlns:xlink="http://www.w3.org/1999/xlink" xmlns:sketch="http://www.bohemiancoding.com/sketch/ns">
    <!-- Generator: Sketch 3.4.2 (15855) - http://www.bohemiancoding.com/sketch -->
    <title>Artboard 6 Copy</title>
    <desc>Created with Sketch.</desc>
    <defs></defs>
    <g id="Page-1" stroke="none" stroke-width="1" fill="none" fill-rule="evenodd" sketch:type="MSPage">
        <g id="Artboard-6-Copy" sketch:type="MSArtboardGroup" fill="#FFFFFF">
            <g id="rain_icon" sketch:type="MSLayerGroup" transform="translate(8.000000, 5.000000)">
                <path d="M36.2162162,132.003947 C36.8364865,132.003947 37.4567568,131.590789 37.8702703,130.971053 L40.9716216,124.980263 C41.3851351,124.153947 41.1783784,122.914474 40.1445946,122.501316 C39.3175676,122.088158 38.077027,122.294737 37.6635135,123.327632 L34.5621622,129.318421 C34.1486486,130.144737 34.3554054,131.384211 35.3891892,131.797368 C35.5959459,131.797368 36.0094595,132.003947 36.2162162,132.003947 L36.2162162,132.003947 Z" id="Shape" sketch:type="MSShapeGroup"></path>
                <path d="M26.7054054,148.530263 C25.8783784,148.117105 24.6378378,148.323684 24.2243243,149.356579 L21.7432432,154.107895 C21.3297297,154.934211 21.5364865,156.173684 22.5702703,156.586842 C22.777027,156.793421 23.1905405,156.793421 23.3972973,156.793421 C24.0175676,156.793421 24.6378378,156.380263 25.0513514,155.760526 L27.5324324,151.009211 C27.9459459,149.976316 27.7391892,148.943421 26.7054054,148.530263 L26.7054054,148.530263 Z" id="Shape" sketch:type="MSShapeGroup"></path>
                <path d="M82.1162162,130.971053 L85.2175676,124.980263 C85.6310811,124.153947 85.4243243,122.914474 84.3905405,122.501316 C83.5635135,122.088158 82.322973,122.294737 81.9094595,123.327632 L78.8081081,129.318421 C78.3945946,130.144737 78.6013514,131.384211 79.6351351,131.797368 C79.8418919,132.003947 80.2554054,132.003947 80.4621622,132.003947 C81.2891892,132.003947 81.9094595,131.590789 82.1162162,130.971053 L82.1162162,130.971053 Z" id="Shape" sketch:type="MSShapeGroup"></path>
                <path d="M68.677027,149.356579 L66.1959459,154.107895 C65.7824324,154.934211 65.9891892,156.173684 67.022973,156.586842 C67.2297297,156.793421 67.6432432,156.793421 67.85,156.793421 C68.4702703,156.793421 69.0905405,156.380263 69.5040541,155.760526 L71.9851351,151.009211 C72.3986486,150.182895 72.1918919,148.943421 71.1581081,148.530263 C70.1243243,148.117105 69.0905405,148.530263 68.677027,149.356579 L68.677027,149.356579 Z" id="Shape" sketch:type="MSShapeGroup"></path>
                <path d="M59.9932432,130.971053 L63.0945946,124.980263 C63.5081081,124.153947 63.3013514,122.914474 62.2675676,122.501316 C61.4405405,122.088158 60.2,122.294737 59.7864865,123.327632 L56.8918919,129.318421 C56.4783784,130.144737 56.6851351,131.384211 57.7189189,131.797368 C57.9256757,132.003947 58.3391892,132.003947 58.5459459,132.003947 C58.9594595,132.003947 59.5797297,131.590789 59.9932432,130.971053 L59.9932432,130.971053 Z" id="Shape" sketch:type="MSShapeGroup"></path>
                <path d="M45.727027,156.793421 C46.3472973,156.793421 46.9675676,156.380263 47.3810811,155.760526 L49.8621622,151.009211 C50.2756757,150.182895 50.0689189,148.943421 49.0351351,148.530263 C48.2081081,148.117105 46.9675676,148.323684 46.5540541,149.356579 L44.072973,154.107895 C43.6594595,154.934211 43.8662162,156.173684 44.9,156.586842 C45.1067568,156.586842 45.3135135,156.793421 45.727027,156.793421 L45.727027,156.793421 Z" id="Shape" sketch:type="MSShapeGroup"></path>
                <path d="M104.239189,123.327632 L101.137838,129.318421 C100.724324,130.144737 100.931081,131.384211 101.964865,131.797368 C102.171622,132.003947 102.585135,132.003947 102.791892,132.003947 C103.412162,132.003947 104.032432,131.590789 104.445946,130.971053 L107.547297,124.980263 C107.960811,124.153947 107.754054,122.914474 106.72027,122.501316 C105.686486,122.088158 104.652703,122.501316 104.239189,123.327632 L104.239189,123.327632 Z" id="Shape" sketch:type="MSShapeGroup"></path>
                <path d="M93.2810811,148.530263 C92.4540541,148.117105 91.2135135,148.323684 90.8,149.356579 L88.3189189,154.107895 C87.9054054,154.934211 88.1121622,156.173684 89.1459459,156.586842 C89.3527027,156.793421 89.7662162,156.793421 89.972973,156.793421 C90.5932432,156.793421 91.2135135,156.380263 91.627027,155.760526 L94.1081081,151.009211 C94.5216216,149.976316 94.1081081,148.943421 93.2810811,148.530263 L93.2810811,148.530263 Z" id="Shape" sketch:type="MSShapeGroup"></path>
                <path d="M150.759459,65.8986842 C150.759459,53.0907895 144.97027,41.5223684 136.07973,33.8789474 C136.07973,33.8789474 136.07973,33.8789474 136.07973,33.6723684 C135.872973,33.4657895 135.872973,33.4657895 135.666216,33.2592105 C134.839189,32.6394737 134.012162,32.0197368 133.185135,31.4 C132.978378,31.1934211 132.564865,30.9868421 132.358108,30.7802632 C131.531081,30.1605263 130.497297,29.5407895 129.67027,29.1276316 C129.463514,28.9210526 129.256757,28.9210526 128.843243,28.7144737 C127.809459,28.0947368 126.775676,27.6815789 125.741892,27.0618421 C125.535135,27.0618421 125.328378,26.8552632 125.328378,26.8552632 C124.087838,26.4421053 122.847297,25.8223684 121.606757,25.4092105 C121.606757,25.4092105 121.606757,25.4092105 121.4,25.4092105 C117.264865,24.1697368 112.922973,23.3434211 108.581081,23.3434211 C107.754054,23.3434211 106.927027,23.3434211 105.893243,23.55 L105.066216,23.55 L104.652703,23.55 C97.0027027,9.08947368 82.1162162,0.206578947 65.7824324,0.206578947 C42.4189189,0.206578947 23.1905405,18.1789474 21.7432432,41.3157895 C8.92432432,46.6868421 0.447297297,59.4947368 0.447297297,73.3355263 C0.447297297,92.5473684 16.1608108,108.040789 35.1824324,108.040789 L108.581081,108.040789 C131.737838,108.247368 150.759459,89.2421053 150.759459,65.8986842 L150.759459,65.8986842 Z M108.374324,104.735526 L34.9756757,104.735526 C17.8148649,104.735526 3.75540541,90.6881579 3.75540541,73.5421053 C3.75540541,60.7342105 11.8189189,48.9592105 23.8108108,44.4144737 C24.4310811,44.2078947 24.8445946,43.5881579 25.0513514,42.7618421 C25.8783784,20.8644737 43.6594595,3.925 65.5756757,3.925 C80.2554054,3.925 93.4878378,11.5684211 100.724324,24.3763158 C91.4202703,26.0289474 82.7364865,30.7802632 76.327027,38.4236842 C75.7067568,39.25 75.7067568,40.2828947 76.5337838,40.9026316 C76.9472973,41.1092105 77.3608108,41.3157895 77.7743243,41.3157895 C78.1878378,41.3157895 78.8081081,41.1092105 79.2216216,40.6960526 C93.0743243,24.5828947 117.264865,22.5171053 133.598649,36.1513158 C142.075676,43.175 147.658108,53.9171053 147.658108,65.8986842 C147.244595,87.1763158 129.877027,104.735526 108.374324,104.735526 L108.374324,104.735526 Z" id="Shape" sketch:type="MSShapeGroup"></path>
            </g>
        </g>
    </g>
</svg>