<?xml version="1.0" encoding="UTF-8"?>
<svg width="166px" height="166px" viewBox="0 0 166 166" version="1.1" xmlns="http://www.w3.org/2000/svg" xmlns:xlink="http://www.w3.org/1999/xlink" xmlns:sketch="http://www.bohemiancoding.com/sketch/ns">
    <!-- Generator: Sketch 3.4.2 (15855) - http://www.bohemiancoding.com/sketch -->
    <title>Artboard 4 Copy</title>
    <desc>Created with Sketch.</desc>
    <defs></defs>
    <g id="Page-1" stroke="none" stroke-width="1" fill="none" fill-rule="evenodd" sketch:type="MSPage">
        <g id="Artboard-4-Copy" sketch:type="MSArtboardGroup" fill="#FFFFFF">
            <g id="temp_icon" sketch:type="MSLayerGroup" transform="translate(54.000000, 4.000000)">
                <path d="M28.5991677,0.976536926 C12.829241,0.976536926 0,13.8593006 0,29.6671291 L0,129.309408 C0,145.117236 12.829241,158 28.5991677,158 C44.3688049,158 57.221495,145.129134 57.221495,129.309408 L57.221495,29.6671291 C57.221495,13.8717785 44.3688049,0.976536926 28.5991677,0.976536926 L28.5991677,0.976536926 Z M28.5991677,5.39054115 C41.9466039,5.39054115 52.8179932,16.2756712 52.8179932,29.6671291 L52.8179932,129.309408 C52.8179932,142.688678 41.9466039,153.585996 28.5991677,153.585996 C15.2517315,153.585996 4.40379126,142.688678 4.40379126,129.309408 L4.40379126,29.6671291 C4.40379126,16.2878589 15.2517315,5.39054115 28.5991677,5.39054115 L28.5991677,5.39054115 Z M28.6194323,22.881733 C24.5178734,22.881733 21.1941863,26.2365619 21.1941863,30.3479032 L21.1941863,32.907335 L9.55361001,32.907335 L9.55361001,37.321049 L21.1941863,37.321049 L21.1941863,44.3647098 L15.9010678,44.3647098 L15.9010678,48.7784239 L21.1941863,48.7784239 L21.1941863,55.540315 L9.55361001,55.540315 L9.55361001,59.9540291 L21.1941863,59.9540291 L21.1941863,66.8804551 L15.9010678,66.8804551 L15.9010678,71.2944594 L21.1941863,71.2944594 L21.1941863,78.1970902 L9.55361001,78.1970902 L9.55361001,82.6108043 L21.1941863,82.6108043 L21.1941863,89.3726955 L15.9010678,89.3726955 L15.9010678,93.7864095 L21.1941863,93.7864095 L21.1941863,100.853575 L9.55361001,100.853575 L9.55361001,105.244075 L21.1941863,105.244075 L21.1941863,117.311999 C17.2252159,119.860403 14.8001199,124.185321 14.8001199,128.933908 C14.8001199,136.567225 21.0042779,142.762675 28.6194323,142.762675 C36.2342972,142.762675 42.4152956,136.555037 42.4152956,128.933908 C42.4152956,124.185321 40.0017795,119.860403 36.0443888,117.311999 L36.0443888,105.244075 L48.013252,105.244075 L48.013252,100.853575 L36.0443888,100.853575 L36.0443888,93.7864095 L41.6657942,93.7864095 L41.6657942,89.3726955 L36.0443888,89.3726955 L36.0443888,82.6108043 L48.013252,82.6108043 L48.013252,78.1970902 L36.0443888,78.1970902 L36.0443888,71.2944594 L41.6657942,71.2944594 L41.6657942,66.8804551 L36.0443888,66.8804551 L36.0443888,59.9540291 L48.013252,59.9540291 L48.013252,55.540315 L36.0443888,55.540315 L36.0443888,48.7784239 L41.6657942,48.7784239 L41.6657942,44.3647098 L36.0443888,44.3647098 L36.0443888,37.321049 L48.013252,37.321049 L48.013252,32.907335 L36.0443888,32.907335 L36.0443888,30.3479032 C36.0443888,26.2365619 32.7207018,22.881733 28.6194323,22.881733 L28.6194323,22.881733 Z M28.6194323,27.2960274 C30.2866315,27.2960274 31.6405976,28.6651203 31.6405976,30.3479032 L31.6405976,64.4620532 L25.574239,64.4620532 L25.574239,30.3479032 C25.574239,28.6410349 26.9166253,27.2960274 28.6194323,27.2960274 L28.6194323,27.2960274 Z M28.0334953,119.753615 C33.238318,119.753615 37.4730445,123.998732 37.4730445,129.215678 C37.4730445,129.829419 36.9843777,130.318961 36.3720967,130.318961 C35.7725534,130.318961 35.2711488,129.828259 35.2711488,129.215678 C35.2711488,125.212576 32.0270728,121.960472 28.0334953,121.960472 C27.4212143,121.960472 26.9325475,121.458162 26.9325475,120.857189 C26.9325475,120.244608 27.4212143,119.753615 28.0334953,119.753615 L28.0334953,119.753615 Z" id="Shape" sketch:type="MSShapeGroup"></path>
            </g>
        </g>
    </g>
</svg>