<?xml version="1.0" encoding="UTF-8"?>
<svg width="166px" height="166px" viewBox="0 0 166 166" version="1.1" xmlns="http://www.w3.org/2000/svg" xmlns:xlink="http://www.w3.org/1999/xlink" xmlns:sketch="http://www.bohemiancoding.com/sketch/ns">
    <!-- Generator: Sketch 3.4.2 (15855) - http://www.bohemiancoding.com/sketch -->
    <title>Artboard 2 Copy</title>
    <desc>Created with Sketch.</desc>
    <defs></defs>
    <g id="Page-1" stroke="none" stroke-width="1" fill="none" fill-rule="evenodd" sketch:type="MSPage">
        <g id="Artboard-2-Copy" sketch:type="MSArtboardGroup" fill="#FFFFFF">
            <g id="uv_icon" sketch:type="MSLayerGroup" transform="translate(7.000000, 7.000000)">
                <path d="M146.901417,46.7537333 C143.054917,37.65035 137.546833,29.4811167 130.53155,22.4658333 C123.51365,15.45055 115.347033,9.94508333 106.246267,6.09596667 C96.8158,2.10816667 86.8122833,0.0854833333 76.5,0.0854833333 C66.1851,0.0854833333 56.1815833,2.10555 46.7537333,6.09596667 C37.65035,9.94508333 29.4811167,15.45055 22.4658333,22.4658333 C15.45055,29.4837333 9.94508333,37.6529667 6.09596667,46.7537333 C2.10555,56.1815833 0.0854833333,66.1903333 0.0854833333,76.5 C0.0854833333,86.8122833 2.10555,96.8210333 6.09596667,106.246267 C9.94508333,115.34965 15.45055,123.5215 22.4658333,130.534167 C29.4837333,137.54945 37.6529667,143.057533 46.7537333,146.90665 C56.1842,150.891833 66.1851,152.914517 76.5,152.914517 C86.8122833,152.914517 96.8184167,150.89445 106.246267,146.90665 C115.34965,143.057533 123.516267,137.54945 130.53155,130.534167 C137.546833,123.518883 143.054917,115.347033 146.901417,106.246267 C150.889217,96.8184167 152.914517,86.8122833 152.914517,76.5 C152.914517,66.1903333 150.891833,56.1815833 146.901417,46.7537333 L146.901417,46.7537333 Z M76.5,138.112033 C42.5278167,138.112033 14.8879667,110.4748 14.8879667,76.5 C14.8879667,42.5278167 42.5252,14.8879667 76.5,14.8879667 C110.4748,14.8879667 138.112033,42.5278167 138.112033,76.5 C138.112033,110.472183 110.472183,138.112033 76.5,138.112033 L76.5,138.112033 Z" id="Shape" sketch:type="MSShapeGroup"></path>
                <path d="M73.82315,39.5997667 L79.17685,39.5997667 C79.4306667,39.5997667 79.63215,39.3982833 79.63215,39.14185 L79.63215,26.731 C79.63215,26.4798 79.4306667,26.2757 79.17685,26.2757 L73.82315,26.2757 C73.57195,26.2757 73.3704667,26.4798 73.3704667,26.731 L73.3704667,39.14185 C73.3704667,39.4009 73.57195,39.5997667 73.82315,39.5997667 L73.82315,39.5997667 Z" id="Shape" sketch:type="MSShapeGroup"></path>
                <path d="M102.441633,33.4139667 L97.7133167,30.9019667 C97.4909,30.7816 97.21615,30.8653333 97.0984,31.0825167 L91.2710833,42.0489667 C91.1507167,42.2687667 91.2396833,42.54875 91.4568667,42.6638833 L96.1825667,45.1785 C96.4049833,45.2936333 96.6797333,45.2099 96.7974833,44.9848667 L102.627417,34.0288833 C102.745167,33.8090833 102.661433,33.5343333 102.441633,33.4139667 L102.441633,33.4139667 Z" id="Shape" sketch:type="MSShapeGroup"></path>
                <path d="M119.630517,50.63425 L116.63705,46.1963833 C116.49575,45.9896667 116.21315,45.9321 116.003817,46.0760167 L105.715083,53.0154167 C105.50575,53.1567167 105.4508,53.4419333 105.589483,53.6460333 L108.58295,58.0865167 C108.726867,58.2906167 109.009467,58.3481833 109.216183,58.2095 L119.507533,51.2648667 C119.716867,51.1288 119.774433,50.8462 119.630517,50.63425 L119.630517,50.63425 Z" id="Shape" sketch:type="MSShapeGroup"></path>
                <path d="M112.91615,69.9818833 L113.4735,75.3068 C113.5049,75.5553833 113.727317,75.7359333 113.9759,75.7097667 L126.321333,74.4092833 C126.572533,74.3857333 126.750467,74.1607 126.7243,73.9121167 L126.16695,68.5872 C126.138167,68.3386167 125.91575,68.15545 125.667167,68.1842333 L113.319117,69.4821 C113.07315,69.5082667 112.887367,69.7333 112.91615,69.9818833 L112.91615,69.9818833 Z" id="Shape" sketch:type="MSShapeGroup"></path>
                <path d="M123.814567,92.2418667 L112.30385,87.5946667 C112.073583,87.49785 111.8093,87.6129833 111.7151,87.84325 L109.7055,92.8070667 C109.613917,93.0373333 109.726433,93.3042333 109.9567,93.3984333 L121.467417,98.04825 C121.7003,98.14245 121.961967,98.0299333 122.064017,97.7918167 L124.065767,92.8332333 C124.162583,92.5977333 124.044833,92.3386833 123.814567,92.2418667 L123.814567,92.2418667 Z" id="Shape" sketch:type="MSShapeGroup"></path>
                <path d="M47.2796833,53.0154167 L36.99095,46.0760167 C36.7842333,45.9373333 36.4990167,45.9922833 36.3577167,46.1963833 L33.36425,50.63425 C33.2255667,50.8462 33.2831333,51.1288 33.4872333,51.2674833 L43.7785833,58.2121167 C43.9879167,58.3481833 44.2705167,58.2906167 44.4144333,58.0891333 L47.4052833,53.64865 C47.5465833,53.4419333 47.4890167,53.1567167 47.2796833,53.0154167 L47.2796833,53.0154167 Z" id="Shape" sketch:type="MSShapeGroup"></path>
                <path d="M39.5265,75.3068 L40.08385,69.9818833 C40.1100167,69.7306833 39.92685,69.50565 39.6808833,69.4821 L27.3328333,68.1842333 C27.0816333,68.1580667 26.8592167,68.3386167 26.83305,68.5872 L26.2757,73.9121167 C26.2469167,74.1607 26.4327,74.3857333 26.6786667,74.4092833 L39.0241,75.7097667 C39.2726833,75.7359333 39.4951,75.5553833 39.5265,75.3068 L39.5265,75.3068 Z" id="Shape" sketch:type="MSShapeGroup"></path>
                <path d="M41.2822833,87.8406333 C41.1933167,87.6103667 40.9238,87.4952333 40.69615,87.59205 L29.1854333,92.23925 C28.9551667,92.3360667 28.8400333,92.5977333 28.9316167,92.8332333 L30.9359833,97.7918167 C31.0328,98.0299333 31.2997,98.14245 31.5299667,98.04825 L43.0406833,93.3984333 C43.2735667,93.30685 43.3860833,93.0373333 43.2918833,92.8070667 L41.2822833,87.8406333 L41.2822833,87.8406333 Z" id="Shape" sketch:type="MSShapeGroup"></path>
                <path d="M76.5,64.2016667 C75.8510667,64.2016667 75.22045,64.2513833 74.5976833,64.3482 L56.6525833,30.6847833 C56.5348333,30.4623667 56.2600833,30.3786333 56.0376667,30.499 L49.8047667,33.81955 C49.5849667,33.9373 49.50385,34.2146667 49.6189833,34.4370833 L67.551,68.0691 C65.4759833,70.2723333 64.2069,73.2396333 64.2069,76.5026167 C64.2069,83.2981 69.7123667,88.8035667 76.5026167,88.8035667 C83.2928667,88.8035667 88.7983333,83.2981 88.7983333,76.5026167 C88.7957167,69.7071333 83.29025,64.2016667 76.5,64.2016667 L76.5,64.2016667 Z" id="Shape" sketch:type="MSShapeGroup"></path>
            </g>
        </g>
    </g>
</svg>