<?xml version="1.0" encoding="UTF-8"?>
<svg width="166px" height="166px" viewBox="0 0 166 166" version="1.1" xmlns="http://www.w3.org/2000/svg" xmlns:xlink="http://www.w3.org/1999/xlink" xmlns:sketch="http://www.bohemiancoding.com/sketch/ns">
    <!-- Generator: Sketch 3.4.2 (15855) - http://www.bohemiancoding.com/sketch -->
    <title>Artboard 3 Copy</title>
    <desc>Created with Sketch.</desc>
    <defs></defs>
    <g id="Page-1" stroke="none" stroke-width="1" fill="none" fill-rule="evenodd" sketch:type="MSPage">
        <g id="Artboard-3-Copy" sketch:type="MSArtboardGroup" fill="#FFFFFF">
            <g id="wind_icon" sketch:type="MSLayerGroup" transform="translate(2.000000, 5.000000)">
                <path d="M95.7301587,106.6 L2.58730159,106.6 C1.03492063,106.6 0,107.9 0,109.2 C0,110.76 1.03492063,111.8 2.58730159,111.8 L95.7301587,111.8 C106.338095,111.8 114.87619,120.38 114.87619,131.3 C114.87619,141.96 106.338095,150.8 95.7301587,150.8 C89.2619048,150.8 83.8285714,145.34 83.8285714,138.84 C83.8285714,136.76 84.3460317,134.68 85.3809524,132.86 C86.1571429,131.56 85.6396825,130 84.3460317,129.22 C83.052381,128.44 81.5,128.96 80.7238095,130.26 C79.1714286,132.86 78.3952381,135.98 78.3952381,138.84 C78.3952381,148.46 86.1571429,156 95.4714286,156 C108.925397,156 119.792063,144.82 119.792063,131.3 C120.050794,117.78 109.184127,106.6 95.7301587,106.6 L95.7301587,106.6 Z" id="Shape" sketch:type="MSShapeGroup"></path>
                <path d="M136.092063,47.06 C126.777778,47.06 119.015873,54.86 119.015873,64.22 C119.015873,67.34 119.792063,70.2 121.344444,72.8 C122.120635,74.1 123.673016,74.36 124.966667,73.84 C126.260317,73.06 126.519048,71.5 126.001587,70.2 C124.966667,68.38 124.449206,66.3 124.449206,64.22 C124.449206,57.46 129.88254,52.26 136.350794,52.26 C146.95873,52.26 155.496825,60.84 155.496825,71.76 C155.496825,82.42 146.95873,91.26 136.350794,91.26 L35.4460317,91.26 C33.8936508,91.26 32.8587302,92.56 32.8587302,93.86 C32.8587302,95.42 33.8936508,96.46 35.4460317,96.46 L136.350794,96.46 C149.804762,96.46 160.671429,85.28 160.671429,71.76 C160.671429,58.24 149.546032,47.06 136.092063,47.06 L136.092063,47.06 Z" id="Shape" sketch:type="MSShapeGroup"></path>
                <path d="M2.58730159,49.4 L95.7301587,49.4 C109.184127,49.4 120.050794,38.22 120.050794,24.7 C120.050794,11.18 109.184127,0 95.7301587,0 C86.415873,0 78.6539683,7.8 78.6539683,17.16 C78.6539683,20.28 79.4301587,23.14 80.9825397,25.74 C81.7587302,27.04 83.3111111,27.3 84.6047619,26.78 C85.8984127,26 86.1571429,24.44 85.6396825,23.14 C84.6047619,21.32 84.0873016,19.24 84.0873016,17.16 C84.0873016,10.4 89.5206349,5.2 95.9888889,5.2 C106.596825,5.2 115.134921,13.78 115.134921,24.7 C115.134921,35.36 106.596825,44.2 95.9888889,44.2 L2.58730159,44.2 C1.03492063,44.2 0,45.5 0,46.8 C0,48.1 1.03492063,49.4 2.58730159,49.4 L2.58730159,49.4 Z" id="Shape" sketch:type="MSShapeGroup"></path>
                <path d="M2.58730159,80.6 L104.268254,80.6 C105.820635,80.6 106.855556,79.3 106.855556,78 C106.855556,76.7 105.820635,75.4 104.268254,75.4 L2.58730159,75.4 C1.03492063,75.4 0,76.7 0,78 C0,79.3 1.03492063,80.6 2.58730159,80.6 L2.58730159,80.6 Z" id="Shape" sketch:type="MSShapeGroup"></path>
                <path d="M35.1873016,59.8 C33.6349206,59.8 32.6,61.1 32.6,62.4 C32.6,63.96 33.6349206,65 35.1873016,65 L85.1222222,65 C86.6746032,65 87.7095238,63.7 87.7095238,62.4 C87.7095238,60.84 86.6746032,59.8 85.1222222,59.8 L35.1873016,59.8 L35.1873016,59.8 Z" id="Shape" sketch:type="MSShapeGroup"></path>
            </g>
        </g>
    </g>
</svg>